<svg xmlns="http://www.w3.org/2000/svg" width="36.116" height="25" viewBox="0 0 36.116 25">
    <g>
        <path fill="#00ccf2" d="M35.461 85.454l-6.182-8.432a5.2 5.2 0 0 0-3.835-1.947H2.9a2.907 2.907 0 0 0-2.9 2.9v19.2a2.907 2.907 0 0 0 2.9 2.9h22.544a5.174 5.174 0 0 0 3.835-1.947l6.182-8.428a3.761 3.761 0 0 0 0-4.246zm-1.614 3.072l-6.182 8.432a3.246 3.246 0 0 1-2.228 1.125H2.9a.907.907 0 0 1-.9-.9v-19.2a.907.907 0 0 1 .9-.9h22.544a3.292 3.292 0 0 1 2.229 1.117l6.182 8.432a1.8 1.8 0 0 1-.008 1.894z" transform="translate(0 -75.075)"/>
    </g>
</svg>
